<?xml version="1.0" encoding="utf-8"?>
<!-- Generator: Adobe Illustrator 24.1.1, SVG Export Plug-In . SVG Version: 6.00 Build 0)  -->
<svg version="1.1" id="Layer_1" xmlns="http://www.w3.org/2000/svg" xmlns:xlink="http://www.w3.org/1999/xlink" x="0px" y="0px"
	 viewBox="0 0 119.1 23" style="enable-background:new 0 0 119.1 23;" xml:space="preserve">
<style type="text/css">
	.st0{fill:#FFFFFF;}
</style>
<g>
	<g>
		<path class="st0" d="M34.2,0.6c0,0.2,0,0.2,0,0.3c0,2.7,0,5.5,0,8.2c0,0.3,0,0.5,0.5,0.5c2.1,0,4.3,0,6.6,0c0,0,0.2,0,0.3,0
			c0,1.9,0,3.7,0,5.6c0,0-0.2,0-0.3,0c-2.3,0-4.3,0-6.6,0c-0.3,0-0.3,0-0.3,0.3c0,2.3,0,4.5,0,6.8c0,0.2,0,0.3-0.3,0.3
			c-2.4,0-5,0-7.4,0c-0.3,0-0.3,0-0.3-0.3c0-7.1,0-14,0-21.1C26.3,1,26.5,1,26.6,1C29,1,31.5,1,34,1C34,0.6,34.2,0.6,34.2,0.6z"/>
		<path class="st0" d="M19.2,15c0,2.4,0,4.8,0,7.2c-2.6,0-5.3,0-7.9,0c0-7.2,0-14.5,0-21.7h0.2c2.4,0,4.8,0,7.2,0
			c0.3,0,0.3,0,0.3,0.3c0,2.7,0,5.5,0,8.2c0,0.2,0,0.2,0,0.3c0.2,0,0.2,0,0.3,0c1.6,0,3.4,0,5,0c0.3,0,0.3,0,0.3,0.3
			c0,1.6,0,3.4,0,5c0,0.3,0,0.3-0.3,0.3c-1.6,0-3.2,0-4.8,0C19.4,15,19.4,15,19.2,15z"/>
		<path class="st0" d="M42.9,0.6c0.2,0,0.2,0,0.2,0c2.3,0,4.5,0,6.8,0c0.3,0,0.3,0,0.3,0.3c0,5,0,10,0,15c0,0.8-0.2,1.4-0.5,2.1
			c-0.3,0.6-0.6,1.3-1.3,1.9c-1,1.1-2.1,1.8-3.5,2.1c-0.5,0.2-1.1,0.2-1.6,0.2c-1.9,0-4,0-6,0c-0.2,0-0.3,0-0.3-0.3c0-1.6,0-3.2,0-5
			c0-0.3,0.2-0.3,0.3-0.3c0.6,0,1.3,0,1.9,0c1,0,1.9-0.3,2.6-1.1c0.5-0.5,0.6-1.1,0.8-1.8c0-0.5,0-1.1,0-1.6c0-3.9,0-7.6,0-11.4
			C42.9,0.8,42.9,0.6,42.9,0.6z"/>
		<path class="st0" d="M38.9,3.9c0-1.1,0-2.1,0-3.2c0.2,0,0.3,0,0.5,0c0.6,0,1.3,0,1.9,0c0.2,0,0.3,0.2,0.3,0.3c0,2.7,0,5.3,0,8.1
			l0,0c-0.5,0-1,0-1.3,0c0,0-0.2-0.2-0.3-0.2c-1.3-1.3-2.7-2.6-4-4c-0.2-0.2-0.2-0.3-0.2-0.5c0-1,0-1.9,0-2.9c0-0.2,0-0.3,0-0.5
			C36.8,1.8,37.7,2.9,38.9,3.9z"/>
	</g>
	<g>
		<g>
			<path class="st0" d="M56.7,0.6h3.9v5.5h3.2V0.6h3.9v14.5h-3.9V9.3h-3.2v5.8h-3.9C56.7,15.1,56.7,0.6,56.7,0.6z"/>
			<path class="st0" d="M70.1,0.6H74v5.5H77V0.6h3.9v14.5H77V9.3H74v5.8h-3.9V0.6z"/>
			<path class="st0" d="M83.3,13l2.1-2.4c0.8,1,1.8,1.4,2.6,1.4c1.3,0,1.9-0.5,1.9-2.3v-6h-5.5V0.6h9.3v9.5c0,2.9-1.4,5.3-5.6,5.3
				C86.7,15.3,84.8,14.8,83.3,13z"/>
			<path class="st0" d="M97,0.6h3.9l2.4,6.4l1.1,3.2h0.2c-0.2-1.6-0.5-3.7-0.5-5.5V0.6h3.7v14.5h-3.9l-2.4-6.6l-1.1-3.2h-0.2
				c0.2,1.6,0.5,3.7,0.5,5.6v4.2H97V0.6z"/>
		</g>
		<g>
			<path class="st0" d="M56.7,17.4H58v3.7h2.1v1h-3.2v-4.7H56.7z"/>
			<path class="st0" d="M60.6,19.8c0-1.6,0.8-2.4,1.9-2.4c1.1,0,1.9,0.8,1.9,2.4c0,1.6-0.8,2.4-1.9,2.4
				C61.4,22.2,60.6,21.4,60.6,19.8z M63.2,19.8c0-1-0.3-1.3-0.6-1.3c-0.5,0-0.6,0.5-0.6,1.3c0,1,0.3,1.4,0.6,1.4
				C62.9,21.1,63.2,20.8,63.2,19.8z"/>
			<path class="st0" d="M64.9,19.8c0-1.6,1-2.4,2.3-2.4c0.6,0,1.1,0.3,1.4,0.6l-0.8,0.6c-0.2-0.2-0.3-0.3-0.6-0.3
				c-0.5,0-1,0.5-1,1.3s0.3,1.4,1,1.4c0.2,0,0.3,0,0.3,0v-0.6h-0.6v-1h1.8v2.3c-0.3,0.3-1,0.6-1.4,0.6
				C65.9,22.2,64.9,21.4,64.9,19.8z"/>
			<path class="st0" d="M73.8,17.4h1.8c1,0,1.9,0.3,1.9,1.6c0,1.1-1,1.6-1.9,1.6h-0.5v1.4h-1.3C73.8,22.1,73.8,17.4,73.8,17.4z
				 M75.6,19.7c0.5,0,0.6-0.2,0.6-0.6c0-0.5-0.3-0.6-0.6-0.6h-0.5v1.3H75.6z"/>
			<path class="st0" d="M78,19.8c0-1.6,0.8-2.4,1.9-2.4c1.1,0,1.9,0.8,1.9,2.4c0,1.6-0.8,2.4-1.9,2.4C78.8,22.2,78,21.4,78,19.8z
				 M80.6,19.8c0-1-0.3-1.3-0.6-1.3c-0.5,0-0.6,0.5-0.6,1.3c0,1,0.3,1.4,0.6,1.4S80.6,20.8,80.6,19.8z"/>
			<path class="st0" d="M82.5,21.6l0.6-0.8c0.3,0.3,0.8,0.5,1.3,0.5c0.3,0,0.5-0.2,0.5-0.3c0-0.3-0.3-0.3-0.6-0.5l-0.6-0.2
				c-0.5-0.2-1-0.6-1-1.3c0-0.8,0.6-1.4,1.8-1.4c0.5,0,1.1,0.2,1.6,0.6L85.4,19c-0.3-0.2-0.6-0.3-1.1-0.3c-0.3,0-0.5,0.2-0.5,0.3
				c0,0.2,0.3,0.3,0.8,0.5l0.5,0.2c0.6,0.2,1,0.6,1,1.3c0,0.8-0.6,1.4-1.9,1.4C83.6,22.2,83,22.1,82.5,21.6z"/>
			<path class="st0" d="M87,21.1h1.1v-2.6H87v-1h3.4v1h-1.1v2.6h1.1v1H87V21.1z"/>
			<path class="st0" d="M92.3,18.5H91v-1h4v1h-1.3v3.7h-1.3L92.3,18.5L92.3,18.5z"/>
			<path class="st0" d="M95.7,21.1h1.1v-2.6h-1.1v-1h3.4v1H98v2.6h1.1v1h-3.4V21.1z"/>
			<path class="st0" d="M99.7,19.8c0-1.6,0.8-2.4,1.9-2.4c1.1,0,1.9,0.8,1.9,2.4c0,1.6-0.8,2.4-1.9,2.4
				C100.5,22.2,99.7,21.4,99.7,19.8z M102.3,19.8c0-1-0.3-1.3-0.6-1.3c-0.5,0-0.6,0.5-0.6,1.3c0,1,0.3,1.4,0.6,1.4
				C102.1,21.1,102.3,20.8,102.3,19.8z"/>
			<path class="st0" d="M104.2,17.4h1.3l0.8,2.1l0.3,1.1l0,0c0-0.5-0.2-1.3-0.2-1.8v-1.4h1.1v4.7h-1.3l-0.8-2.1l-0.2-1l0,0
				c0,0.5,0.2,1.3,0.2,1.8v1.4h-1.1v-4.8H104.2z"/>
		</g>
	</g>
</g>
</svg>
