<?xml version="1.0" encoding="utf-8"?>
<!-- Generator: Adobe Illustrator 24.1.1, SVG Export Plug-In . SVG Version: 6.00 Build 0)  -->
<svg version="1.1" id="Layer_1" xmlns="http://www.w3.org/2000/svg" xmlns:xlink="http://www.w3.org/1999/xlink" x="0px" y="0px"
	 viewBox="0 0 120 120" style="enable-background:new 0 0 120 120;" xml:space="preserve">
<style type="text/css">
	.st0{fill:#2B2D42;}
	.st1{fill:#8D99AE;}
	.st2{fill:#EDF2F4;}
	.st3{fill:#EF233C;}
	.st4{fill:#D90429;}
</style>
<g>
	<g>
		<rect x="-153.83" y="-228.59" class="st0" width="61.53" height="135.37"/>
		<rect x="-92.3" y="-228.59" class="st1" width="61.53" height="135.37"/>
		<rect x="-30.77" y="-228.59" class="st2" width="61.53" height="135.37"/>
		<rect x="30.77" y="-228.59" class="st3" width="61.53" height="135.37"/>
		<rect x="92.3" y="-228.59" class="st4" width="61.53" height="135.37"/>
	</g>
	<g>
		<g>
			<path class="st1" d="M-150.2-98.52c1.26-1.03,2.16-1.83,2.16-2.48c0-0.47-0.27-0.69-0.68-0.69c-0.35,0-0.62,0.22-0.87,0.44
				l-0.67-0.68c0.51-0.52,0.98-0.75,1.72-0.75c1,0,1.71,0.63,1.71,1.61c0,0.77-0.78,1.62-1.55,2.27c0.26-0.03,0.61-0.06,0.84-0.06
				h0.95v1.06h-3.6V-98.52z"/>
			<path class="st1" d="M-145.69-102.6h1.71c1,0,1.8,0.25,1.8,1.2c0,0.41-0.25,0.89-0.81,1.03v0.03c0.68,0.13,1.02,0.49,1.02,1.12
				c0,0.99-0.83,1.42-1.86,1.42h-1.86V-102.6z M-144-100.71c0.41,0,0.59-0.21,0.59-0.5c0-0.29-0.18-0.41-0.59-0.41h-0.41v0.92H-144z
				 M-143.91-98.77c0.5,0,0.71-0.19,0.71-0.55s-0.21-0.5-0.71-0.5h-0.5v1.05H-143.91z"/>
			<path class="st1" d="M-141.34-98.52c1.26-1.03,2.16-1.83,2.16-2.48c0-0.47-0.27-0.69-0.68-0.69c-0.35,0-0.62,0.22-0.87,0.44
				l-0.67-0.68c0.51-0.52,0.98-0.75,1.72-0.75c1,0,1.71,0.63,1.71,1.61c0,0.77-0.78,1.62-1.55,2.27c0.26-0.03,0.61-0.06,0.84-0.06
				h0.95v1.06h-3.6V-98.52z"/>
			<path class="st1" d="M-136.82-102.6h1.38c1.37,0,2.34,0.68,2.34,2.38c0,1.7-0.97,2.42-2.27,2.42h-1.46V-102.6z M-135.51-98.82
				c0.61,0,1.11-0.28,1.11-1.4c0-1.12-0.49-1.36-1.11-1.36h-0.04v2.76H-135.51z"/>
			<path class="st1" d="M-130.43-100.44c0-0.33,0.03-0.8,0.04-1.12h-0.03c-0.15,0.29-0.35,0.58-0.52,0.86l-0.49,0.83h2.72v0.96
				h-3.91v-0.89l1.81-2.79h1.57v4.8h-1.18V-100.44z"/>
			<path class="st1" d="M-128.05-98.52c1.26-1.03,2.16-1.83,2.16-2.48c0-0.47-0.27-0.69-0.68-0.69c-0.35,0-0.62,0.22-0.87,0.44
				l-0.67-0.68c0.51-0.52,0.98-0.75,1.72-0.75c1,0,1.71,0.63,1.71,1.61c0,0.77-0.78,1.62-1.55,2.27c0.26-0.03,0.61-0.06,0.84-0.06
				h0.95v1.06h-3.6V-98.52z"/>
		</g>
	</g>
	<g>
		<g>
			<path class="st0" d="M-88.16-99.02c0-0.56,0.36-0.9,0.83-1.14v-0.03c-0.39-0.28-0.67-0.64-0.67-1.14c0-0.84,0.69-1.36,1.65-1.36
				c0.94,0,1.57,0.52,1.57,1.33c0,0.44-0.3,0.8-0.66,1.01v0.03c0.49,0.24,0.86,0.63,0.86,1.26c0,0.77-0.65,1.34-1.82,1.34
				C-87.48-97.71-88.16-98.24-88.16-99.02z M-85.75-99.1c0-0.35-0.38-0.5-1-0.74c-0.2,0.16-0.32,0.42-0.32,0.66
				c0,0.39,0.32,0.59,0.71,0.59C-86.01-98.58-85.75-98.72-85.75-99.1z M-85.81-101.27c0-0.35-0.21-0.55-0.56-0.55
				c-0.28,0-0.52,0.14-0.52,0.49c0,0.33,0.32,0.5,0.81,0.68C-85.89-100.85-85.81-101.06-85.81-101.27z"/>
			<path class="st0" d="M-83.68-102.6h1.38c1.37,0,2.34,0.68,2.34,2.38c0,1.7-0.97,2.42-2.27,2.42h-1.46V-102.6z M-82.37-98.82
				c0.61,0,1.11-0.28,1.11-1.4c0-1.12-0.49-1.36-1.11-1.36h-0.04v2.76H-82.37z"/>
			<path class="st0" d="M-79.31-98.3l0.66-0.75c0.18,0.16,0.49,0.33,0.78,0.33c0.54,0,1-0.38,1-1.55c0-1.22-0.44-1.46-0.75-1.46
				c-0.3,0-0.61,0.16-0.61,0.68c0,0.44,0.25,0.59,0.58,0.59c0.25,0,0.52-0.12,0.77-0.44l0.06,0.8c-0.32,0.34-0.79,0.53-1.11,0.53
				c-0.8,0-1.45-0.45-1.45-1.48c0-1.03,0.81-1.62,1.73-1.62c0.94,0,1.94,0.66,1.94,2.41c0,1.74-1,2.57-2.04,2.57
				C-78.45-97.71-78.99-97.99-79.31-98.3z"/>
			<path class="st0" d="M-74.88-98.3l0.66-0.75c0.18,0.16,0.49,0.33,0.78,0.33c0.54,0,1-0.38,1-1.55c0-1.22-0.44-1.46-0.75-1.46
				c-0.3,0-0.61,0.16-0.61,0.68c0,0.44,0.25,0.59,0.58,0.59c0.25,0,0.52-0.12,0.77-0.44l0.06,0.8c-0.32,0.34-0.79,0.53-1.11,0.53
				c-0.8,0-1.45-0.45-1.45-1.48c0-1.03,0.81-1.62,1.73-1.62c0.94,0,1.94,0.66,1.94,2.41c0,1.74-1,2.57-2.04,2.57
				C-74.02-97.71-74.56-97.99-74.88-98.3z"/>
			<path class="st0" d="M-69.42-102.6h1.54l1.45,4.8h-1.34l-0.54-2.33c-0.1-0.46-0.24-1.03-0.35-1.52h-0.03
				c-0.1,0.49-0.23,1.06-0.33,1.52l-0.54,2.33h-1.3L-69.42-102.6z M-69.82-99.8h2.33v0.98h-2.33V-99.8z"/>
			<path class="st0" d="M-65.81-102.6h3.26v1.06h-1.99v0.75h1.7v1.06h-1.7v0.86h2.07v1.06h-3.34V-102.6z"/>
		</g>
	</g>
	<g>
		<g>
			<path class="st0" d="M-26-102.6h3.29v1.06h-2.02v0.92H-23v1.06h-1.73v1.76H-26V-102.6z"/>
			<path class="st0" d="M-21.57-102.6h3.29v1.06h-2.02v0.92h1.73v1.06h-1.73v1.76h-1.27V-102.6z"/>
			<path class="st0" d="M-17.14-102.6h3.29v1.06h-2.02v0.92h1.73v1.06h-1.73v1.76h-1.27V-102.6z"/>
			<path class="st0" d="M-12.71-102.6h3.29v1.06h-2.02v0.92h1.73v1.06h-1.73v1.76h-1.27V-102.6z"/>
			<path class="st0" d="M-8.28-102.6h3.29v1.06h-2.02v0.92h1.73v1.06h-1.73v1.76h-1.27V-102.6z"/>
			<path class="st0" d="M-3.85-102.6h3.29v1.06h-2.02v0.92h1.73v1.06h-1.73v1.76h-1.27V-102.6z"/>
		</g>
	</g>
	<g>
		<g>
			<path class="st2" d="M36.83-102.6h3.26v1.06H38.1v0.75h1.7v1.06h-1.7v0.86h2.07v1.06h-3.34V-102.6z"/>
			<path class="st2" d="M41.34-102.6h3.29v1.06h-2.02v0.92h1.73v1.06h-1.73v1.76h-1.27V-102.6z"/>
			<path class="st2" d="M45.46-98.52c1.26-1.03,2.16-1.83,2.16-2.48c0-0.47-0.27-0.69-0.68-0.69c-0.35,0-0.62,0.22-0.87,0.44
				l-0.67-0.68c0.51-0.52,0.98-0.75,1.72-0.75c1,0,1.71,0.63,1.71,1.61c0,0.77-0.78,1.62-1.55,2.27c0.26-0.03,0.61-0.06,0.84-0.06
				h0.95v1.06h-3.6V-98.52z"/>
			<path class="st2" d="M49.77-98.37l0.58-0.8c0.31,0.27,0.71,0.44,1.06,0.44c0.46,0,0.78-0.16,0.78-0.47c0-0.38-0.26-0.59-1.3-0.59
				v-0.89c0.84,0,1.15-0.22,1.15-0.56c0-0.3-0.22-0.46-0.59-0.46c-0.34,0-0.61,0.13-0.93,0.38l-0.64-0.77
				c0.48-0.38,1.02-0.61,1.63-0.61c1.08,0,1.8,0.48,1.8,1.35c0,0.46-0.3,0.82-0.86,1.04v0.03c0.58,0.16,1,0.55,1,1.15
				c0,0.91-0.91,1.4-1.92,1.4C50.74-97.71,50.14-97.96,49.77-98.37z"/>
			<path class="st2" d="M54.2-98.37l0.58-0.8c0.31,0.27,0.71,0.44,1.06,0.44c0.46,0,0.78-0.16,0.78-0.47c0-0.38-0.26-0.59-1.3-0.59
				v-0.89c0.84,0,1.15-0.22,1.15-0.56c0-0.3-0.22-0.46-0.59-0.46c-0.34,0-0.61,0.13-0.93,0.38l-0.63-0.77
				c0.48-0.38,1.02-0.61,1.62-0.61c1.08,0,1.8,0.48,1.8,1.35c0,0.46-0.3,0.82-0.86,1.04v0.03c0.58,0.16,1,0.55,1,1.15
				c0,0.91-0.91,1.4-1.92,1.4C55.17-97.71,54.57-97.96,54.2-98.37z"/>
			<path class="st2" d="M58.73-100.16c0-1.61,1.05-2.53,2.35-2.53c0.62,0,1.14,0.29,1.48,0.62l-0.69,0.78
				c-0.22-0.19-0.46-0.31-0.78-0.31c-0.59,0-1.05,0.52-1.05,1.39c0,0.9,0.46,1.4,1.11,1.4c0.31,0,0.58-0.16,0.78-0.38l0.69,0.77
				c-0.4,0.47-0.96,0.71-1.61,0.71C59.81-97.71,58.73-98.52,58.73-100.16z"/>
		</g>
	</g>
	<g>
		<g>
			<path class="st2" d="M96.88-102.6h1.38c1.37,0,2.34,0.68,2.34,2.38c0,1.7-0.97,2.42-2.27,2.42h-1.46V-102.6z M98.2-98.82
				c0.61,0,1.11-0.28,1.11-1.4c0-1.12-0.49-1.36-1.11-1.36h-0.04v2.76H98.2z"/>
			<path class="st2" d="M101.25-98.3l0.67-0.75c0.18,0.16,0.49,0.33,0.78,0.33c0.54,0,1-0.38,1-1.55c0-1.22-0.44-1.46-0.75-1.46
				c-0.3,0-0.61,0.16-0.61,0.68c0,0.44,0.25,0.59,0.58,0.59c0.25,0,0.52-0.12,0.77-0.44l0.06,0.8c-0.33,0.34-0.79,0.53-1.11,0.53
				c-0.8,0-1.45-0.45-1.45-1.48c0-1.03,0.8-1.62,1.73-1.62c0.94,0,1.93,0.66,1.93,2.41c0,1.74-1,2.57-2.04,2.57
				C102.12-97.71,101.58-97.99,101.25-98.3z"/>
			<path class="st2" d="M105.64-100.22c0-1.65,0.75-2.47,1.85-2.47s1.85,0.82,1.85,2.47c0,1.64-0.75,2.51-1.85,2.51
				S105.64-98.58,105.64-100.22z M108.21-100.22c0-1.21-0.33-1.49-0.72-1.49s-0.72,0.28-0.72,1.49c0,1.21,0.33,1.54,0.72,1.54
				S108.21-99.01,108.21-100.22z M106.9-100.22c0-0.35,0.25-0.59,0.59-0.59s0.59,0.24,0.59,0.59c0,0.36-0.25,0.59-0.59,0.59
				S106.9-99.87,106.9-100.22z"/>
			<path class="st2" d="M112.14-100.44c0-0.33,0.03-0.8,0.04-1.12h-0.03c-0.16,0.29-0.35,0.58-0.52,0.86l-0.49,0.83h2.72v0.96h-3.91
				v-0.89l1.81-2.79h1.57v4.8h-1.18V-100.44z"/>
			<path class="st2" d="M114.52-98.52c1.26-1.03,2.16-1.83,2.16-2.48c0-0.47-0.27-0.69-0.68-0.69c-0.35,0-0.62,0.22-0.87,0.44
				l-0.67-0.68c0.51-0.52,0.98-0.75,1.72-0.75c1,0,1.71,0.63,1.71,1.61c0,0.77-0.78,1.62-1.55,2.27c0.26-0.03,0.61-0.06,0.84-0.06
				h0.95v1.06h-3.6V-98.52z"/>
			<path class="st2" d="M118.98-98.3l0.67-0.75c0.18,0.16,0.49,0.33,0.78,0.33c0.54,0,1-0.38,1-1.55c0-1.22-0.44-1.46-0.75-1.46
				c-0.3,0-0.61,0.16-0.61,0.68c0,0.44,0.25,0.59,0.58,0.59c0.25,0,0.52-0.12,0.77-0.44l0.06,0.8c-0.33,0.34-0.79,0.53-1.11,0.53
				c-0.8,0-1.45-0.45-1.45-1.48c0-1.03,0.8-1.62,1.73-1.62c0.94,0,1.93,0.66,1.93,2.41c0,1.74-1,2.57-2.04,2.57
				C119.84-97.71,119.3-97.99,118.98-98.3z"/>
		</g>
	</g>
</g>
<g>
	<path class="st0" d="M37.18,77.62c3.78,0,7.09,0,10.87,0c0,2.05-0.05,4.03,0.01,6c0.2,6.64,4.52,10.95,11.11,10.98
		c10.6,0.04,21.2,0.05,31.79,0c6.44-0.03,11.02-4.63,11.05-11.11c0.05-15.64,0.05-31.29,0-46.93c-0.02-6.54-4.5-11.07-11.01-11.12
		c-10.5-0.08-20.99-0.06-31.49-0.02c-7.22,0.03-11.35,4.23-11.46,11.52c-0.02,1.3,0,2.6,0,4.16c-3.62,0-7.07,0-10.51,0
		C34.94,26.4,44.78,14.52,59.6,14.46c10.4-0.04,20.79-0.05,31.19,0c12.59,0.06,22.04,9.36,22.12,21.95
		c0.1,15.74,0.12,31.49-0.01,47.23c-0.1,12.6-9.59,21.86-22.19,21.9c-10.5,0.04-20.99,0.03-31.49,0
		c-12.65-0.04-21.98-9.35-22.04-21.94C37.17,81.71,37.18,79.81,37.18,77.62z"/>
	<path class="st0" d="M7.01,59.64c8.45-7.11,16.66-14.03,25.38-21.37c0,4.34,0,8.09,0,12.08c10.98,0,21.63,0,32.48,0
		c0,5.92,0,11.59,0,17.51c-10.71,0-21.36,0-32.36,0c0,4.48,0,8.73,0,13.68C23.75,74.01,15.53,66.95,7.01,59.64z"/>
</g>
</svg>
