<?xml version="1.0" encoding="utf-8"?>
<!-- Generator: Adobe Illustrator 24.1.1, SVG Export Plug-In . SVG Version: 6.00 Build 0)  -->
<svg version="1.1" id="Layer_1" xmlns="http://www.w3.org/2000/svg" xmlns:xlink="http://www.w3.org/1999/xlink" x="0px" y="0px"
	 viewBox="0 0 120 120" style="enable-background:new 0 0 120 120;" xml:space="preserve">
<style type="text/css">
	.st0{fill:#2B2D42;}
	.st1{fill:#EDF2F4;}
</style>
<g>
	<path class="st0" d="M117.12,60c0,17.36-7.74,32.91-19.97,43.38c-0.31,0.27-0.63,0.53-0.94,0.79c-9.85,8.1-22.46,12.95-36.21,12.95
		s-26.36-4.85-36.21-12.95c-0.31-0.26-0.63-0.52-0.94-0.79C10.62,92.91,2.88,77.36,2.88,60C2.88,28.45,28.45,2.88,60,2.88
		S117.12,28.45,117.12,60z"/>
	<g>
		<circle class="st1" cx="60" cy="41.35" r="20.04"/>
		<path class="st1" d="M96.21,86.68v17.49c-9.85,8.1-22.46,12.95-36.21,12.95s-26.36-4.85-36.21-12.95V86.68
			c0-12.04,5.87-22.71,14.91-29.28c4.88,6.45,12.61,10.62,21.3,10.62s16.42-4.18,21.28-10.64c1.54,1.12,2.99,2.35,4.33,3.69
			C92.16,67.62,96.21,76.68,96.21,86.68z"/>
	</g>
</g>
</svg>
