<?xml version="1.0" encoding="utf-8"?>
<!-- Generator: Adobe Illustrator 24.1.1, SVG Export Plug-In . SVG Version: 6.00 Build 0)  -->
<svg version="1.1" id="Layer_1" xmlns="http://www.w3.org/2000/svg" xmlns:xlink="http://www.w3.org/1999/xlink" x="0px" y="0px"
	 viewBox="0 0 119.1 23" style="enable-background:new 0 0 119.1 23;" xml:space="preserve">
<style type="text/css">
	.st0{fill:#EDF2F4;}
	.st1{fill:#8D99AE;}
</style>
<g>
	<g>
		<path class="st0" d="M43.83,4.75c0,0.07,0,0.12,0,0.17c0,1.69,0,3.38,0,5.07c0,0.21,0.04,0.25,0.25,0.25
			c1.35-0.01,2.71-0.02,4.06-0.03c0.05,0,0.1,0,0.17,0c0,1.17,0,2.34,0,3.52c-0.05,0-0.1,0-0.16,0c-1.37,0-2.74,0-4.11,0
			c-0.22,0-0.22,0-0.22,0.21c0,1.38,0,2.77,0,4.15c0,0.13-0.04,0.16-0.16,0.16c-1.54,0-3.08,0-4.62,0c-0.18,0-0.18,0-0.18-0.17
			c0-4.36,0-8.73,0-13.09c0-0.21,0.07-0.24,0.23-0.24c1.52,0,3.05,0,4.57,0C43.71,4.75,43.76,4.75,43.83,4.75z"/>
		<path class="st0" d="M34.5,13.73c0,1.5,0,2.99,0,4.48c-1.63,0-3.26,0-4.9,0c0-4.48,0-8.96,0-13.46c0.04,0,0.09,0,0.14,0
			c1.51,0,3.02,0,4.53,0c0.19,0,0.24,0.04,0.24,0.24c0,1.68,0,3.37,0,5.05c0,0.05,0,0.1,0,0.17c0.06,0,0.1,0,0.15,0
			c1.03,0,2.07,0,3.1,0c0.19,0,0.19,0,0.19,0.2c0,1.03,0,2.06,0,3.08c0,0.19-0.05,0.24-0.24,0.24c-1.02,0-2.03,0-3.05,0
			C34.61,13.73,34.57,13.73,34.5,13.73z"/>
		<path class="st0" d="M49.23,4.75c0.06,0,0.1,0,0.14,0c1.4,0,2.81,0,4.21,0c0.17,0,0.21,0.04,0.21,0.21c0,3.11,0,6.22,0,9.33
			c0,0.46-0.13,0.9-0.31,1.32c-0.18,0.44-0.44,0.83-0.76,1.19c-0.59,0.67-1.32,1.11-2.18,1.32c-0.32,0.08-0.67,0.11-1,0.11
			c-1.23,0.01-2.47,0-3.7,0.01c-0.13,0-0.16-0.04-0.16-0.16c0-1.02,0-2.03,0-3.05c0-0.18,0.06-0.23,0.23-0.23c0.41,0,0.81,0,1.22,0
			c0.64-0.01,1.18-0.22,1.6-0.71c0.27-0.31,0.43-0.68,0.46-1.1c0.02-0.34,0.03-0.68,0.03-1.02c0-2.35,0-4.7,0-7.05
			C49.23,4.88,49.23,4.82,49.23,4.75z"/>
		<path class="st0" d="M46.66,6.78c0-0.69,0-1.35,0-2.03c0.11,0,0.21,0,0.31,0c0.4,0,0.8,0,1.21,0c0.12,0,0.17,0.05,0.17,0.16
			c0,1.66,0,3.32,0,4.99c0,0,0,0.01-0.01,0.03c-0.28,0-0.56,0.01-0.84,0c-0.05,0-0.11-0.06-0.16-0.1c-0.82-0.82-1.65-1.64-2.47-2.46
			c-0.1-0.1-0.13-0.22-0.13-0.35c0-0.62,0-1.23,0-1.85c0-0.08,0.02-0.15,0.03-0.27C45.43,5.49,46,6.16,46.66,6.78z"/>
	</g>
	<g>
		<g>
			<path class="st1" d="M57.76,4.75h2.39v3.36h1.95V4.75h2.39v9.04H62.1V10.2h-1.95v3.59h-2.39V4.75z"/>
			<path class="st1" d="M66.1,4.75h2.39v3.36h1.95V4.75h2.39v9.04h-2.39V10.2H68.5v3.59H66.1V4.75z"/>
			<path class="st1" d="M74.35,12.47l1.35-1.49c0.51,0.58,1.08,0.92,1.64,0.92c0.78,0,1.21-0.31,1.21-1.45v-3.7h-3.43v-2h5.83v5.9
				c0,1.81-0.92,3.31-3.52,3.31C76.42,13.95,75.2,13.59,74.35,12.47z"/>
			<path class="st1" d="M82.82,4.75h2.42l1.52,4.03l0.74,2.03h0.06c-0.11-0.97-0.33-2.34-0.33-3.45V4.75h2.28v9.04h-2.42l-1.52-4.05
				l-0.74-2.02h-0.06c0.11,1.03,0.33,2.34,0.33,3.45v2.61h-2.28V4.75z"/>
		</g>
		<g>
			<path class="st1" d="M57.76,15.23h0.77v2.28h1.25v0.65h-2.02V15.23z"/>
			<path class="st1" d="M60.18,16.68c0-0.99,0.49-1.5,1.2-1.5c0.71,0,1.2,0.51,1.2,1.5c0,1.02-0.49,1.53-1.2,1.53
				C60.67,18.21,60.18,17.7,60.18,16.68z M61.79,16.68c0-0.56-0.15-0.84-0.41-0.84c-0.25,0-0.41,0.28-0.41,0.84
				c0,0.59,0.15,0.86,0.41,0.86C61.63,17.54,61.79,17.27,61.79,16.68z"/>
			<path class="st1" d="M62.91,16.72c0-0.99,0.62-1.54,1.38-1.54c0.4,0,0.68,0.18,0.87,0.38l-0.42,0.48
				c-0.12-0.12-0.24-0.19-0.45-0.19c-0.32,0-0.58,0.31-0.58,0.85c0,0.55,0.2,0.86,0.62,0.86c0.07,0,0.15-0.02,0.2-0.05v-0.41h-0.36
				v-0.63h1.05v1.4c-0.2,0.18-0.56,0.36-0.93,0.36C63.54,18.21,62.91,17.72,62.91,16.72z"/>
			<path class="st1" d="M68.43,15.23h1.1c0.63,0,1.17,0.23,1.17,0.97c0,0.72-0.56,1.03-1.17,1.03H69.2v0.93h-0.77V15.23z
				 M69.49,16.62c0.31,0,0.45-0.15,0.45-0.41c0-0.26-0.16-0.36-0.45-0.36H69.2v0.77H69.49z"/>
			<path class="st1" d="M71,16.68c0-0.99,0.49-1.5,1.2-1.5s1.2,0.51,1.2,1.5c0,1.02-0.49,1.53-1.2,1.53S71,17.7,71,16.68z
				 M72.6,16.68c0-0.56-0.15-0.84-0.41-0.84c-0.25,0-0.41,0.28-0.41,0.84c0,0.59,0.15,0.86,0.41,0.86
				C72.45,17.54,72.6,17.27,72.6,16.68z"/>
			<path class="st1" d="M73.75,17.79l0.44-0.53c0.22,0.17,0.48,0.28,0.75,0.28c0.23,0,0.32-0.08,0.32-0.17
				c0-0.17-0.15-0.21-0.42-0.32l-0.37-0.15c-0.34-0.13-0.62-0.39-0.62-0.82c0-0.5,0.45-0.91,1.12-0.91c0.35,0,0.72,0.13,1,0.39
				l-0.39,0.49c-0.21-0.14-0.38-0.21-0.66-0.21c-0.17,0-0.29,0.06-0.29,0.2c0,0.14,0.17,0.18,0.46,0.29l0.34,0.14
				c0.39,0.14,0.62,0.4,0.62,0.8c0,0.5-0.41,0.94-1.17,0.94C74.5,18.21,74.07,18.08,73.75,17.79z"/>
			<path class="st1" d="M76.55,17.51h0.67v-1.63h-0.67v-0.65h2.11v0.65h-0.67v1.63h0.67v0.65h-2.11V17.51z"/>
			<path class="st1" d="M79.92,15.88h-0.84v-0.65h2.46v0.65h-0.84v2.28h-0.77V15.88z"/>
			<path class="st1" d="M81.96,17.51h0.67v-1.63h-0.67v-0.65h2.11v0.65H83.4v1.63h0.67v0.65h-2.11V17.51z"/>
			<path class="st1" d="M84.51,16.68c0-0.99,0.49-1.5,1.2-1.5c0.71,0,1.2,0.51,1.2,1.5c0,1.02-0.49,1.53-1.2,1.53
				C85,18.21,84.51,17.7,84.51,16.68z M86.12,16.68c0-0.56-0.15-0.84-0.41-0.84c-0.25,0-0.41,0.28-0.41,0.84
				c0,0.59,0.15,0.86,0.41,0.86C85.96,17.54,86.12,17.27,86.12,16.68z"/>
			<path class="st1" d="M87.34,15.23h0.78l0.49,1.31l0.24,0.66h0.02c-0.04-0.32-0.11-0.76-0.11-1.12v-0.85h0.74v2.93h-0.78
				l-0.49-1.31l-0.24-0.65h-0.02c0.04,0.33,0.11,0.76,0.11,1.12v0.85h-0.74V15.23z"/>
		</g>
	</g>
</g>
</svg>
